<?xml version="1.0" encoding="UTF-8"?>
<svg id="Layer_2" data-name="Layer 2" xmlns="http://www.w3.org/2000/svg" viewBox="0 0 894.31 674.65">
  <defs>
    <style>
      .cls-1 {
        letter-spacing: -.02em;
      }

      .cls-2 {
        font-family: InstrumentSerif-Regular, 'Instrument Serif';
        font-size: 130px;
        stroke: #000;
        stroke-miterlimit: 10;
        stroke-width: 2px;
      }

      .cls-3 {
        letter-spacing: -.02em;
      }

      .cls-4 {
        letter-spacing: -.01em;
      }

      .cls-5 {
        letter-spacing: -.02em;
      }

      .cls-6 {
        letter-spacing: -.03em;
      }

      .cls-7 {
        letter-spacing: -.04em;
      }

      .cls-8 {
        letter-spacing: -.02em;
      }

      .cls-9 {
        letter-spacing: -.03em;
      }

      .cls-10 {
        letter-spacing: -.03em;
      }

      .cls-11 {
        letter-spacing: 0em;
      }

      .cls-12 {
        letter-spacing: -.05em;
      }

      .cls-13 {
        letter-spacing: -.03em;
      }
    </style>
  </defs>
  <g id="SQUARES">
    <g id="Layer_9" data-name="Layer 9">
      <g>
        <text class="cls-2" transform="translate(1 477.48)"><tspan class="cls-8" x="0" y="0">D</tspan><tspan class="cls-4" x="66.3" y="0">E</tspan><tspan class="cls-5" x="123.89" y="0">R</tspan><tspan class="cls-7" x="187.72" y="0">B</tspan><tspan class="cls-10" x="244.92" y="0">Y</tspan><tspan class="cls-9" x="302.51" y="0">V</tspan><tspan class="cls-11" x="358.54" y="0">ILLE </tspan><tspan class="cls-8" x="572.77" y="0">D</tspan><tspan class="cls-11" x="639.07" y="0">EC</tspan><tspan class="cls-13" x="757.76" y="0">K</tspan><tspan class="cls-11" x="818.6" y="0">S </tspan><tspan class="cls-5" x="220.41" y="156">C</tspan><tspan class="cls-11" x="279.95" y="156">O</tspan><tspan class="cls-3" x="348.85" y="156">M</tspan><tspan class="cls-12" x="432.96" y="156">P</tspan><tspan class="cls-1" x="487.04" y="156">A</tspan><tspan class="cls-6" x="543.85" y="156">N</tspan><tspan class="cls-11" x="609.89" y="156">Y</tspan></text>
        <path d="M151.21,121.45c17.15,11.66,46.85,10.95,67.14,9.21l21.74-1.87c-25.75,23.3-37.06,51.34-44.18,83.84l-15.02,12.95-26.44,63.99-.1,26.95,46.53-.12-9.49-26.44,10.65-23.48c44.31-9.09,77.06-38.91,95.65-79.92,4.29,1.69,8.48,3.35,12.57,4.96-5.28,14.89-14.12,39.33-24.06,51.33l49.22,59.94,5.5,13.72,52.5-.02c-2.32-5.36-4.5-10.11-7.69-14.94-2.5-2.46-7.4-4.38-10.6-6.63l-35.68-41.68c12.61-5.89,38.43-19.9,48.5-29.76l100.15-20.01c3.16,2.62,6.33,5.13,9.53,7.54l-25.04,81.34c7.32,7.5,12.08,15.84,15.36,25.54l42.94-.81c3.03-.06,5.31-.3,8.1-.83-9.86-18.91-6.13-12.42-22.07-25.36l16.53-57.38-.11-.07c13.49,7.01,27.69,12.97,43.01,18.45l-4.69,10.35-10.69-4.18c-5.87-2.29-26.19,14.75-30.27,21.48l49.16,17.43,11.86-5.8,25.85-48.95-28.71-30.7,22.02-13.18-1.48,6.63c-.16.7.61,1.26,1.22.89,12.72-7.65,21.31-17.99,28.6-30.81l-1.05,10.37c-.07.6.52,1.05,1.09.86,6.72-2.19,11.49-6.72,16.54-12.32-.44,7.23-4.8,12.49-9.96,17.72-.48.48-.18,1.32.5,1.4,8.55.98,16.98-2.63,22.44-9.55l5.79-7.35c-.14,10.6-6.67,17.19-13,24.98-.47.58,0,1.44.76,1.34,15.54-2.06,29.8-15.88,37.65-27.94,2.23-3.42,5.1-5.59,9.18-6.48,6.01-1.32,11.88-2.59,17.73-4.23,15.12-4.23,13.51-23.93,11.63-36.45-1.5-9.97-3.35-19.44-6.63-28.89-1.47-4.23-3.84-8.59-3.93-13.05l-.33-15.68c-.21-10.35-5.87-19.61-12.58-27.46-7.66-8.96-17.3-15.85-28.12-20.46-21.5-9.15-28.76,6.86-50.32,2.46-8.66-1.77-16.83-4.64-25.04-8.34-20.62-9.28-41.91-14.8-64.72-15.72-46.17-1.88-95.33,6.94-137.08,19.91-27.54,8.56-62.03,17.04-90.33,22.33-21.42,4-57.07,30.8-65.64,52.97-23.94,13.36-75.22,27.5-98.69,11.39-5.4-3.7-7.31-9.41-5.52-15.61,1.56-5.44,5.35-10.88,11.67-11.71,15.67-2.07,26.65-14.8,26.01-31.18-.34-8.57-2.06-17.19-5.61-25.51-.36-.84-1.56-.82-1.9.02-3.06,7.83-5.68,14.99-11.89,20.19-6.64,5.57-13.61,10.42-19.17,17.18-13.32,16.2-19.69,46.13,2.5,61.21ZM660.49,61.64c8.32-12.12,13.73-18.53,16.15-32.01.35-1.96,3.04-2.38,3.94-.59,5.3,10.47,2.53,22.08-2.42,32.44-3.14,6.57-3.83,14.84.65,21.08,1.53,2.13,2.47,5.16,1.54,7.5-.69,1.73-3.34,4.43-5.9,4.69-8.91.86-15.08-5.56-16.56-13.39-1.29-6.89-1.45-13.81,2.6-19.7Z"/>
      </g>
    </g>
  </g>
</svg>