<?xml version="1.0" encoding="UTF-8"?>
<svg id="Layer_2" data-name="Layer 2" xmlns="http://www.w3.org/2000/svg" viewBox="0 0 939.44 939.44">
  <defs>
    <style>
      .cls-1 {
        font-size: 97.58px;
      }

      .cls-1, .cls-2, .cls-3, .cls-4, .cls-5, .cls-6 {
        stroke-miterlimit: 10;
      }

      .cls-1, .cls-7, .cls-3, .cls-4 {
        fill: #203823;
      }

      .cls-1, .cls-3, .cls-4, .cls-5, .cls-6 {
        stroke: #203823;
      }

      .cls-1, .cls-4 {
        font-family: InstrumentSerif-Regular, 'Instrument Serif';
        stroke-width: 2.5px;
      }

      .cls-2 {
        stroke: #e2be82;
        stroke-width: 2px;
      }

      .cls-2, .cls-8 {
        fill: #e2be82;
      }

      .cls-3 {
        font-family: InstrumentSans-SemiBold, 'Instrument Sans';
        font-size: 31.82px;
        font-variation-settings: 'wdth' 100, 'wght' 600;
        font-weight: 600;
      }

      .cls-4 {
        font-size: 97.98px;
      }

      .cls-5 {
        stroke-width: 8px;
      }

      .cls-5, .cls-6 {
        fill: none;
      }

      .cls-6 {
        stroke-width: 6px;
      }
    </style>
  </defs>
  <g id="EMBLEMS">
    <g id="EMBLEM003">
      <g>
        <circle id="MainEllipse" class="cls-8" cx="469.72" cy="469.72" r="465.72"/>
        <circle id="OutsideEllipse" class="cls-5" cx="469.72" cy="469.72" r="465.72"/>
        <circle id="InsideRingEllipse" class="cls-6" cx="469.72" cy="469.72" r="351.76"/>
        <path id="SEYMOUR" class="cls-7" d="M761.63,389.84c-5.56-6.76-12.53-11.61-19.17-17.18-6.21-5.2-8.83-12.35-11.89-20.19-.34-.85-1.54-.86-1.9-.02-3.54,8.32-5.27,16.94-5.61,25.51-.64,16.37,10.34,29.11,26.01,31.18,6.32.83,10.11,6.27,11.67,11.71,1.79,6.2-.12,11.91-5.52,15.61-23.47,16.1-74.75,1.96-98.69-11.39-8.57-22.18-44.22-48.97-65.64-52.97-28.3-5.29-62.8-13.78-90.33-22.33-41.75-12.97-90.91-21.79-137.08-19.91-22.8.92-44.1,6.44-64.72,15.72-8.21,3.69-16.38,6.57-25.04,8.34-21.56,4.41-28.83-11.61-50.32-2.46-10.83,4.61-20.46,11.5-28.12,20.46-6.71,7.84-12.36,17.11-12.58,27.46l-.33,15.68c-.09,4.46-2.46,8.81-3.93,13.05-3.29,9.44-5.13,18.91-6.63,28.89-1.88,12.52-3.49,32.21,11.63,36.45,5.85,1.64,11.72,2.91,17.73,4.23,4.08.89,6.95,3.06,9.18,6.48,7.85,12.06,22.1,25.89,37.65,27.94.75.1,1.22-.76.76-1.34-6.33-7.79-12.86-14.38-13-24.98l5.79,7.35c5.46,6.92,13.89,10.53,22.44,9.55.68-.08.98-.91.5-1.4-5.16-5.23-9.52-10.49-9.96-17.72,5.05,5.61,9.82,10.13,16.54,12.32.57.19,1.15-.26,1.09-.86l-1.05-10.37c7.29,12.82,15.87,23.16,28.6,30.81.62.37,1.38-.19,1.22-.89l-1.48-6.63,22.02,13.18-28.71,30.7,25.85,48.95,11.86,5.8,49.16-17.43c-4.08-6.73-24.4-23.77-30.27-21.48l-10.69,4.18-4.69-10.35c15.31-5.48,29.52-11.44,43.01-18.45l-.11.07,16.53,57.38c-15.94,12.94-12.21,6.44-22.07,25.36,2.79.53,5.06.77,8.1.83l42.94.81c3.28-9.7,8.04-18.03,15.36-25.54l-25.04-81.34c3.2-2.41,6.37-4.92,9.53-7.54l100.15,20.01c10.07,9.86,35.89,23.87,48.5,29.76l-35.68,41.68c-3.21,2.25-8.11,4.18-10.6,6.63-3.18,4.83-5.37,9.58-7.69,14.94l52.5.02,5.5-13.72,49.22-59.94c-9.94-12-18.78-36.44-24.06-51.33,4.09-1.61,8.28-3.26,12.57-4.96,18.59,41.02,51.34,70.83,95.65,79.92l10.65,23.48-9.49,26.44,46.53.12-.1-26.95-26.44-63.99-15.02-12.95c-7.13-32.49-18.44-60.54-44.18-83.84l21.74,1.87c20.29,1.73,49.99,2.45,67.14-9.21,22.19-15.08,15.82-45,2.5-61.21ZM252.45,410.94c-1.47,7.83-7.64,14.25-16.56,13.39-2.56-.25-5.21-2.96-5.9-4.69-.93-2.33,0-5.37,1.54-7.5,4.48-6.24,3.79-14.51.65-21.08-4.95-10.36-7.72-21.96-2.42-32.44.9-1.78,3.58-1.37,3.94.59,2.42,13.48,7.83,19.89,16.15,32.01,4.05,5.89,3.89,12.82,2.6,19.7ZM406.41,545.18l6.27-4.57c-2.08,1.57-4.17,3.09-6.27,4.57ZM422.32,532.98l13.74-12.24c-4.56,4.34-9.13,8.41-13.74,12.24Z"/>
        <text id="TEXT-001-BOTTOM" class="cls-4" transform="translate(33.77 561.47) rotate(78.1)"><tspan x="0" y="0">D</tspan></text>
        <text class="cls-4" transform="translate(63.41 662.14) rotate(61.63)"><tspan x="0" y="0">E</tspan></text>
        <text class="cls-4" transform="translate(115.75 744.38) rotate(46.76)"><tspan x="0" y="0">C</tspan></text>
        <text class="cls-4" transform="translate(188.01 812.2) rotate(33.55)"><tspan x="0" y="0">K</tspan></text>
        <text class="cls-4" transform="translate(272.15 861.66) rotate(22.49)"><tspan x="0" y="0">S</tspan></text>
        <text class="cls-4" transform="translate(356.28 891.42) rotate(13.71)"><tspan x="0" y="0"> </tspan></text>
        <text class="cls-4" transform="translate(421.42 904.45) rotate(4.41)"><tspan x="0" y="0">C</tspan></text>
        <text class="cls-4" transform="translate(519.29 906.87) rotate(-8.65)"><tspan x="0" y="0">O</tspan></text>
        <text class="cls-4" transform="translate(622.99 884.86) rotate(-23.39)"><tspan x="0" y="0">M</tspan></text>
        <text class="cls-4" transform="translate(726.94 831.89) rotate(-37.07)"><tspan x="0" y="0">P</tspan></text>
        <text class="cls-4" transform="translate(798.14 771.87) rotate(-49.07)"><tspan x="0" y="0">A</tspan></text>
        <text class="cls-4" transform="translate(856.88 695.69) rotate(-62.73)"><tspan x="0" y="0">N</tspan></text>
        <text class="cls-4" transform="translate(898.29 600.6) rotate(-77.37)"><tspan x="0" y="0">Y</tspan></text>
        <text id="TEXT001-TOP" class="cls-1" transform="translate(102.03 393.82) rotate(-74.95)"><tspan x="0" y="0">T</tspan></text>
        <text class="cls-1" transform="translate(125.44 319.23) rotate(-62.29)"><tspan x="0" y="0">H</tspan></text>
        <text class="cls-1" transform="translate(169.26 244.74) rotate(-49.78)"><tspan x="0" y="0">E</tspan></text>
        <text class="cls-1" transform="translate(222.77 187.79) rotate(-39.98)"><tspan x="0" y="0"> </tspan></text>
        <text class="cls-1" transform="translate(262.45 156.47) rotate(-29.61)"><tspan x="0" y="0">D</tspan></text>
        <text class="cls-1" transform="translate(337.28 118.41) rotate(-17.27)"><tspan x="0" y="0">E</tspan></text>
        <text class="cls-1" transform="translate(412.2 98.58) rotate(-4.93)"><tspan x="0" y="0">R</tspan></text>
        <text class="cls-1" transform="translate(494.29 95.1) rotate(7.23)"><tspan x="0" y="0">B</tspan></text>
        <text class="cls-1" transform="translate(570.52 107.99) rotate(19.11)"><tspan x="0" y="0">Y</tspan></text>
        <text class="cls-1" transform="translate(642.72 136.53) rotate(30.89)"><tspan x="0" y="0">V</tspan></text>
        <text class="cls-1" transform="translate(706.64 179.18) rotate(41.07)"><tspan x="0" y="0">I</tspan></text>
        <text class="cls-1" transform="translate(749.04 219.16) rotate(51.14)"><tspan x="0" y="0">L</tspan></text>
        <text class="cls-1" transform="translate(792.77 278.71) rotate(62.43)"><tspan x="0" y="0">L</tspan></text>
        <text class="cls-1" transform="translate(824.03 345.53) rotate(74.08)"><tspan x="0" y="0">E</tspan></text>
        <polygon id="MAINSTAR-RIGHT" class="cls-7" points="62.39 439.32 69.21 460.33 91.3 460.33 73.43 473.31 80.26 494.31 62.39 481.33 44.52 494.31 51.34 473.31 33.48 460.33 55.56 460.33 62.39 439.32"/>
        <polygon id="MAINSTAR-LEFT" class="cls-7" points="879.94 440.22 886.77 461.23 908.85 461.23 890.99 474.21 897.81 495.22 879.94 482.23 862.07 495.22 868.9 474.21 851.03 461.23 873.12 461.23 879.94 440.22"/>
        <g id="RIBBON">
          <g>
            <path class="cls-8" d="M268.99,621.12c1.96-.93,9.25-7.21,8.73-8.24-5.01-9.85-9.64-20.7-13.05-31.67l-5.06-16.24c-.54-1.73-.21-3.99.64-5.36.63-1.01,1.59-1.11,2.32-.37,14.22,14.54,27.53,24.04,45.97,26.57,7.04.97,13.91,1.32,20.98,1.14,1.13-.03,2.04-.51,2.74,1.28.2.73.49,2.01.49,3l.03,17.65c41.91,10.28,83.97,15.93,126.42,16.04l11.2.03,35.14-1.44c32.71-1.34,64.86-7.5,97.24-15.24l.08-18.73c0-1.59,1.08-3.01,2.11-3.21,29.39.42,45.05-4.27,67.92-27.73.86-.88,2.01-.42,2.52.7.94,2.04.74,4.28.05,6.41l-6.45,20.03c-3.05,9.47-7.02,18.09-11.4,26.74,5.92,7.81,12.81,10.17,20.63,13.38,1.42,1.4,2.12,5.78.35,7.56-12.25,12.33-25.81,22.05-40.39,29.18l-.04,26.36c0,1.37-.68,2.54-1.51,3.36-101.22,32.47-201.86,38.58-304.3,10.61-11.55-3.15-22.97-6.65-34.3-10.58-.97-.34-1.65-2.36-1.65-3.55l-.03-25.96c-14.1-7.02-27.38-16.67-39.41-28.61-1.49-1.48-1.67-6.59.2-7.48l11.83-5.63ZM653.71,644.39c4.26-2.73,8.11-5.68,11.98-8.9l1.54-1.28,2.26-1.88c.13-.11.35-.44.44-.58s-.3-.57-.5-.66c-6.4-2.96-11.52-6.85-15.9-13.75-1.76-2.78-1.92-6.12-.24-8.96,2.09-3.52,3.72-7.41,5.56-11.19.36-.75.65-1.58.93-2.4l4.18-10.09,3.74-10.92c-2.78,1.79-4.86,4.04-7.43,5.86l-5.01,3.56c-10.19,6.66-18.66,9.22-29.54,10.92-.24.04-.61.42-.53.49s.4.31.63.41l11.29,4.77c.58.24,1.07,1.93,1.07,2.78l.02,50.72c1.95-.43,2.57-1.21,4.44-2.1,3.84-1.82,7.27-4.35,11.08-6.79ZM296.38,603.85c0-1.66.43-2.96,1.11-4.24,3.13-.04,5.26-1.46,8.29-2.75,1.38-.59,2.7-.88,4.17-1.95-4.09-.88-7.83-1.46-11.9-2.65-9.95-2.92-19.14-8.49-27.58-15.79-.83-.72-1.45-1.43-2.55-1.72,3.89,13.01,9.22,24.68,15.04,36.02,1.15,2.25-.02,5.44-.97,7.02l-1.7,2.82-1.76,1.9c-3.75,4.56-8.25,7.09-13.34,9.71,9.88,8.79,19.84,15.78,31.15,21.48l.04-49.86ZM607.74,692.02l2.64-.7,7.37-2.1,15.65-4.66c.11-.08.45-.25.45-1.47l-.02-74.1c-23.93,6.66-47.38,12.73-71.51,16.36l-22.8,3.43-9.91,1.22-21.08,2.03-3.28.24-4.5.3-5.53.3-5.4.28-5.33.21-12.5.26-23.01-.16-6.98-.26-7.73-.34-5.17-.32-15.65-1.31c-11.74-.98-23.2-2.7-34.89-4.4l-4.53-.66-21.74-4.11-10.72-2.3-14.1-3.43-12.66-3.37-13.62-3.91c-.06.53-.32,1.48-.32,1.93v73.34c1.58.78,3.09,1.17,4.7,1.67l12.46,3.92c12.12,3.81,24.14,7.09,36.47,9.71l15.35,3.25,20.21,3.5,26.74,3.33,13.99,1.15,4.49.27,4.75.27,6.07.27,11.73.3h15.11s9.81-.29,9.81-.29l6.95-.33,5.04-.29,4.71-.34,3.85-.29,28.15-2.89,29.3-4.68,23.96-5.01,9.09-2.2,11.02-2.81c.3-.08.89-.45,1.11-.56.54.01,1.19-.09,1.82-.26Z"/>
            <path d="M607.74,692.02c-.63.17-1.29.27-1.82.26-.23.11-.81.48-1.11.56l-11.02,2.81-9.09,2.2-23.96,5.01-29.3,4.68-28.15,2.89-3.85.29-4.71.34-5.04.29-6.95.33-9.81.29h-15.11s-11.73-.29-11.73-.29l-6.07-.27-4.75-.27-4.49-.27-13.99-1.15-26.74-3.33-20.21-3.5-15.35-3.25c-12.33-2.61-24.35-5.9-36.47-9.71l-12.46-3.92c-1.61-.51-3.12-.89-4.71-1.67v-73.34c.01-.45.28-1.4.34-1.93l13.62,3.91,12.66,3.37,14.1,3.43,10.72,2.3,21.74,4.11,4.53.66c11.69,1.7,23.15,3.42,34.89,4.4l15.65,1.31,5.17.32,7.73.34,6.98.26,23.01.16,12.5-.26,5.33-.21,5.4-.28,5.53-.3,4.5-.3,3.28-.24,21.08-2.03,9.91-1.22,22.8-3.43c24.13-3.63,47.58-9.7,71.51-16.36l.02,74.1c0,1.21-.33,1.39-.45,1.47l-15.65,4.66-7.37,2.1-2.64.7Z"/>
            <path d="M653.71,644.39c-3.8,2.44-7.23,4.97-11.08,6.79-1.87.89-2.49,1.67-4.44,2.1l-.02-50.72c0-.85-.49-2.54-1.07-2.78l-11.29-4.77c-.23-.1-.55-.35-.63-.41s.29-.45.53-.49c10.89-1.7,19.35-4.26,29.54-10.92l5.01-3.56c2.56-1.82,4.64-4.08,7.43-5.86l-3.74,10.92-4.18,10.09c-.28.81-.57,1.65-.93,2.4-1.83,3.78-3.46,7.67-5.56,11.19-1.69,2.84-1.53,6.18.24,8.96,4.38,6.9,9.5,10.79,15.9,13.75.2.09.58.52.5.66s-.31.47-.44.58l-2.26,1.88-1.54,1.28c-3.87,3.22-7.73,6.17-11.98,8.9Z"/>
            <path d="M296.38,603.85l-.04,49.86c-11.31-5.7-21.26-12.69-31.15-21.48,5.09-2.61,9.58-5.14,13.34-9.71l1.76-1.9,1.7-2.82c.95-1.58,2.12-4.77.97-7.02-5.82-11.35-11.15-23.02-15.04-36.02,1.09.28,1.72,1,2.55,1.72,8.45,7.3,17.64,12.86,27.58,15.79,4.07,1.19,7.81,1.77,11.9,2.65-1.47,1.07-2.79,1.36-4.17,1.95-3.03,1.29-5.16,2.71-8.29,2.75-.69,1.28-1.11,2.57-1.11,4.24Z"/>
          </g>
          <g id="TXT003-RIBBON">
            <g>
              <path class="cls-2" d="M313.85,668.21c-.41-.08-.57-.26-.49-.54.07-.23.29-.35.66-.37.33,0,.66.01.98.02.6,0,1.02-.07,1.24-.22.23-.15.42-.49.57-1.04,2.14-7.61,4.28-15.23,6.42-22.84.15-.54.17-.92.05-1.14-.12-.21-.43-.42-.95-.63-.28-.11-.57-.22-.85-.32-.32-.14-.44-.33-.37-.56.08-.28.32-.39.7-.32,4.34.82,8.69,1.6,13.05,2.35.6.1.84.46.74,1.06-.45,2.18-.9,4.35-1.35,6.53-.06.45-.29.64-.68.58-.32-.05-.46-.25-.42-.6.05-.49.09-.99.14-1.48.17-1.82-.08-3.21-.75-4.18-.67-.97-1.78-1.59-3.34-1.87-1.04-.18-1.8-.17-2.28.06-.48.23-.83.71-1.04,1.47-.86,3.12-1.72,6.25-2.58,9.37-.1.36.03.58.41.65.66.12,1.33.24,1.99.36,1.17.21,2.05-.27,2.64-1.45.3-.63.61-1.25.91-1.88.21-.37.48-.5.81-.39.28.1.36.35.26.74-.77,2.92-1.54,5.85-2.31,8.77-.1.39-.31.59-.62.58-.36,0-.55-.22-.55-.63.03-.66.07-1.32.11-1.98.05-.94-.05-1.58-.3-1.93-.26-.35-.69-.57-1.3-.68-.65-.12-1.3-.23-1.96-.35-.37-.07-.61.08-.71.44-.9,3.25-1.79,6.51-2.69,9.76-.26.93-.19,1.65.2,2.16.39.51,1.25.88,2.59,1.12,1.36.24,2.62.11,3.76-.38,1.14-.5,2.13-1.62,2.98-3.38.36-.74.72-1.48,1.08-2.22.17-.32.41-.46.74-.4.38.06.48.31.32.74-.72,2.29-1.45,4.58-2.18,6.88-.21.59-.63.83-1.25.72-4.8-.82-9.59-1.68-14.38-2.58Z"/>
              <path class="cls-2" d="M342.6,673.47c-.55-.08-1.15-.23-1.79-.44-.65-.21-1.25-.44-1.8-.69-.55-.25-.97-.49-1.25-.73-.17-.13-.28-.27-.35-.4-.07-.13-.07-.34,0-.63.42-2.06.85-4.11,1.28-6.17.13-.52.36-.75.71-.7.3.05.44.31.44.8,0,.51,0,1.03.01,1.54.03,3.87,1.33,6.01,3.88,6.4,1.37.21,2.55-.07,3.56-.83,1-.76,1.67-1.93,2.02-3.53.34-1.54.24-3.04-.28-4.5-.52-1.45-1.54-2.97-3.02-4.55-1.66-1.68-2.77-3.25-3.37-4.68-.59-1.43-.71-2.88-.36-4.34.46-1.93,1.51-3.37,3.13-4.32,1.61-.95,3.45-1.27,5.53-.96.78.12,1.51.32,2.2.61.69.29,1.23.64,1.62,1.05.13.13.23.26.29.41.06.14.07.32.03.53-.39,1.98-.78,3.96-1.17,5.94-.1.44-.32.64-.66.59-.24-.03-.37-.24-.39-.62-.02-.34-.04-.68-.06-1.02-.14-2.1-.41-3.66-.81-4.68-.41-1.02-1.18-1.61-2.32-1.79-1.12-.17-2.09.06-2.93.69-.84.63-1.41,1.61-1.73,2.94-.26,1.12-.15,2.25.35,3.38.5,1.13,1.51,2.57,3.04,4.31,1.63,1.89,2.76,3.64,3.36,5.25.6,1.61.73,3.25.37,4.93-.32,1.47-.93,2.7-1.85,3.7-.92,1-2.04,1.72-3.37,2.16-1.33.44-2.76.54-4.3.31Z"/>
              <path class="cls-2" d="M360.49,675.64c-.41-.05-.59-.22-.53-.51.06-.29.27-.42.63-.4.63-.01,1.27-.02,1.9-.04.56,0,.96-.1,1.19-.27.23-.17.4-.53.5-1.09,1.5-7.88,3-15.75,4.5-23.63.07-.37.04-.64-.09-.82s-.44-.3-.93-.36c-.96-.12-2,.17-3.1.89-1.11.72-2,1.98-2.66,3.81-.15.42-.31.85-.46,1.27-.12.33-.34.48-.66.44-.4-.05-.52-.3-.38-.74.6-2.36,1.21-4.71,1.81-7.07.17-.6.47-.87.89-.81.18.02.34.09.48.2.14.11.38.25.74.4.36.16.95.29,1.78.4,2.9.38,5.81.74,8.71,1.08.83.1,1.45.12,1.85.06.4-.06.69-.13.87-.2.18-.07.36-.1.51-.08.42.05.6.38.55.99-.29,2.39-.58,4.79-.87,7.18-.02.45-.23.66-.63.61-.32-.04-.47-.23-.47-.58,0-.44.02-.88.03-1.33.06-1.9-.31-3.32-1.1-4.27-.79-.95-1.68-1.49-2.68-1.61-.5-.06-.84-.02-1.02.12-.19.14-.31.39-.38.76-1.46,7.88-2.91,15.76-4.37,23.65-.1.55-.07.94.1,1.16.17.22.51.4,1.01.55.6.17,1.2.33,1.8.5.35.07.5.25.45.54-.05.29-.28.41-.7.36-3.09-.37-6.18-.75-9.27-1.15Z"/>
              <path class="cls-2" d="M381.55,678.47c-.61-.06-1.09-.31-1.46-.74-.37-.43-.5-.96-.39-1.59.1-.61.39-1.08.87-1.41.48-.34,1.03-.47,1.63-.41.55.06,1.01.3,1.39.73.38.43.52.94.43,1.55-.1.63-.39,1.12-.89,1.46-.5.34-1.03.48-1.58.42Z"/>
              <path class="cls-2" d="M402.84,680.05c-.5-.04-.72-.23-.68-.57.02-.18.15-.42.37-.69,1.94-2.29,3.85-4.59,5.75-6.89,2.37-2.87,4.09-5.37,5.21-7.5,1.12-2.12,1.76-4.1,1.94-5.93.16-1.64-.05-2.92-.63-3.84-.58-.92-1.5-1.42-2.76-1.51-1.26-.09-2.44.27-3.57,1.08-1.12.81-1.95,2.17-2.46,4.08-.13.42-.35.61-.67.59-.4-.03-.54-.31-.42-.83.39-1.73,1.01-3.08,1.85-4.04.84-.96,1.79-1.62,2.86-1.99,1.07-.36,2.12-.51,3.17-.43,1.8.13,3.22.77,4.25,1.94,1.03,1.17,1.47,2.74,1.28,4.7-.13,1.38-.58,2.77-1.37,4.17-.79,1.4-1.84,2.92-3.15,4.55-1.31,1.63-2.83,3.49-4.56,5.59-1.23,1.49-2.46,2.97-3.71,4.45-.19.22-.22.43-.09.61.13.18.34.28.61.31,1.47.11,2.94.22,4.41.32,1.04.07,1.92.02,2.63-.16.71-.18,1.3-.57,1.77-1.16.47-.6.87-1.47,1.2-2.62.18-.61.36-1.23.54-1.84.11-.34.33-.5.66-.48.38.02.52.26.43.71-.39,2.48-.79,4.96-1.18,7.44-.11.61-.48.89-1.12.85-4.18-.26-8.36-.56-12.53-.89Z"/>
              <path class="cls-2" d="M431.62,682.16c-1.6-.07-2.97-.78-4.08-2.14-1.12-1.36-1.92-3.17-2.4-5.43-.48-2.26-.61-4.77-.39-7.53.22-2.76.74-5.23,1.55-7.41.81-2.18,1.84-3.89,3.09-5.14,1.25-1.24,2.63-1.83,4.14-1.77,1.52.07,2.8.77,3.87,2.11,1.07,1.34,1.87,3.14,2.4,5.37.53,2.24.74,4.74.6,7.5-.14,2.76-.6,5.25-1.38,7.45-.79,2.21-1.81,3.94-3.09,5.19-1.27,1.26-2.72,1.85-4.32,1.78ZM431.69,681.08c1.74.08,3.08-1,4.02-3.23.94-2.22,1.53-5.63,1.79-10.23.26-4.59.05-8.02-.59-10.3-.65-2.27-1.79-3.44-3.44-3.51-1.65-.07-2.94.99-3.88,3.2-.94,2.2-1.59,5.6-1.93,10.19-.34,4.59-.2,8.03.45,10.32.65,2.29,1.84,3.48,3.58,3.56Z"/>
              <path class="cls-2" d="M454.84,682.84c-1.6-.02-3-.7-4.17-2.03-1.17-1.33-2.05-3.11-2.62-5.36-.58-2.25-.81-4.75-.7-7.51.1-2.76.52-5.24,1.24-7.45.72-2.2,1.67-3.94,2.87-5.22,1.2-1.28,2.55-1.9,4.06-1.88,1.52.02,2.83.69,3.96,2,1.12,1.31,2,3.08,2.63,5.3.63,2.22.93,4.72.91,7.48-.02,2.76-.37,5.26-1.07,7.49-.69,2.23-1.64,3.99-2.86,5.28-1.22,1.29-2.64,1.92-4.24,1.9ZM454.86,681.76c1.74.03,3.04-1.09,3.88-3.34.85-2.25,1.29-5.67,1.36-10.27.06-4.6-.28-8.02-1.03-10.27-.74-2.25-1.93-3.39-3.59-3.41-1.65-.03-2.89,1.07-3.74,3.3-.85,2.23-1.35,5.64-1.5,10.23-.15,4.6.14,8.03.88,10.3.74,2.27,1.99,3.43,3.73,3.45Z"/>
              <path class="cls-2" d="M477.07,682.88c-1.38.02-2.61-.42-3.68-1.32-1.07-.9-1.91-2.15-2.51-3.77-.6-1.62-.9-3.49-.91-5.62,0-2.18.3-4.3.92-6.36.62-2.06,1.48-3.95,2.57-5.65,1.1-1.71,2.36-3.15,3.8-4.34,1.44-1.19,2.98-1.99,4.65-2.42.26-.06.45-.03.57.07.12.1.18.24.19.4,0,.27-.13.44-.42.53-2.29.81-4.12,2.08-5.52,3.81-1.4,1.73-2.43,3.98-3.09,6.75-.05.19-.03.31.07.38.09.07.22.04.38-.06.82-.59,1.79-.89,2.92-.91,1.26-.01,2.39.36,3.39,1.13,1.01.77,1.82,1.82,2.44,3.17.62,1.34.96,2.89,1.01,4.64.05,1.73-.21,3.32-.8,4.78-.59,1.46-1.41,2.62-2.45,3.49-1.04.87-2.22,1.31-3.52,1.32ZM476.97,681.8c1.41-.02,2.44-.7,3.08-2.05.64-1.35.93-3.42.86-6.21-.07-2.84-.43-4.92-1.08-6.24-.65-1.32-1.64-1.97-2.98-1.95-2.83.03-4.22,2.87-4.18,8.53.05,5.31,1.48,7.96,4.3,7.93Z"/>
              <path class="cls-2" d="M493.37,682.53c-.61.02-1.14-.16-1.58-.53-.45-.37-.68-.88-.71-1.51-.03-.61.17-1.11.58-1.51.41-.4.91-.6,1.52-.62.55-.02,1.05.16,1.51.53.46.37.7.86.73,1.47.03.64-.16,1.16-.58,1.56-.42.4-.91.61-1.46.62Z"/>
              <path class="cls-2" d="M524.94,680.94c-2.04.14-3.89-.35-5.53-1.47-1.64-1.12-2.98-2.77-4-4.93-1.03-2.16-1.66-4.76-1.92-7.78-.25-2.92-.02-5.49.67-7.73.7-2.24,1.73-4.01,3.09-5.3,1.37-1.3,2.94-2.01,4.75-2.13,1.07-.07,2.02-.04,2.85.1.83.14,1.58.34,2.24.61.34.16.52.43.57.8.27,2.01.54,4.02.81,6.02.05.45-.08.69-.4.71-.29.02-.5-.14-.62-.47-.19-.48-.38-.96-.56-1.44-.79-2.02-1.58-3.4-2.39-4.15-.81-.74-1.71-1.08-2.7-1.01-1.83.13-3.24,1.37-4.25,3.74-1.01,2.37-1.33,5.72-.93,10.07.27,2.97.82,5.45,1.65,7.45.83,2,1.81,3.48,2.94,4.45,1.13.97,2.28,1.41,3.44,1.33,1.24-.09,2.2-.53,2.87-1.32.67-.8,1.15-2.27,1.43-4.43.09-.66.18-1.32.27-1.98.04-.4.23-.59.59-.56.3.03.48.24.53.64.19,2.15.39,4.29.58,6.44.04.37-.1.66-.44.87-.62.37-1.37.68-2.25.95-.87.26-1.97.44-3.3.54Z"/>
              <path class="cls-2" d="M547.77,679.04c-1.32.13-2.62-.13-3.88-.78-1.26-.64-2.41-1.59-3.45-2.83-1.04-1.24-1.91-2.74-2.62-4.48-.71-1.74-1.19-3.65-1.45-5.71-.27-2.06-.28-4-.04-5.81.23-1.81.68-3.42,1.33-4.83.65-1.41,1.47-2.53,2.47-3.37.99-.84,2.12-1.32,3.37-1.44,1.25-.12,2.47.13,3.67.76,1.2.63,2.32,1.56,3.37,2.8,1.05,1.24,1.96,2.72,2.71,4.43.75,1.72,1.3,3.6,1.63,5.65.34,2.05.42,4,.23,5.83-.19,1.83-.61,3.45-1.27,4.86-.66,1.41-1.51,2.55-2.54,3.42-1.03.87-2.2,1.37-3.53,1.5ZM547.62,677.97c1.95-.19,3.31-1.47,4.06-3.82.75-2.35.75-5.81.03-10.37-.72-4.56-1.79-7.89-3.18-10.01-1.4-2.12-3.01-3.09-4.87-2.91-1.83.18-3.11,1.43-3.87,3.76-.76,2.33-.84,5.78-.22,10.35.62,4.57,1.62,7.93,3.04,10.07,1.42,2.14,3.1,3.12,5.02,2.94Z"/>
              <path class="cls-2" d="M580.41,675.21c-.44.06-.88-.2-1.31-.79-5.29-7.2-10.43-14.45-15.42-21.73-.11-.17-.22-.24-.34-.2-.11.04-.15.17-.11.38,1.24,6.75,2.47,13.51,3.71,20.26.13.74.37,1.28.7,1.63.33.35.85.54,1.55.55.18,0,.37,0,.55.01.36-.02.57.12.62.41.05.29-.13.46-.54.51-1.96.24-3.93.48-5.89.71-.41.05-.64-.07-.7-.36-.05-.29.1-.47.45-.54.17-.05.35-.09.52-.14.7-.19,1.14-.49,1.35-.91.21-.41.24-.99.11-1.73-1.35-7.46-2.7-14.93-4.05-22.39-.1-.55-.25-.91-.45-1.07-.2-.16-.62-.26-1.23-.3-.31-.02-.62-.03-.93-.05-.35-.04-.55-.18-.59-.41-.05-.29.12-.46.51-.5,1.39-.16,2.79-.33,4.18-.5.65-.08,1.16.15,1.53.7,4.36,6.43,8.83,12.83,13.42,19.2.11.15.23.2.34.15.12-.04.16-.14.13-.3-1.23-5.93-2.45-11.87-3.68-17.8-.17-.84-.44-1.4-.79-1.69-.35-.29-.76-.44-1.22-.46-.24,0-.49-.02-.73-.02-.35-.03-.56-.17-.6-.4-.06-.29.11-.46.5-.51,1.86-.25,3.72-.51,5.58-.77.39-.06.62.06.68.35.06.29-.07.47-.41.54-.16.05-.33.1-.49.15-.66.2-1.08.48-1.27.84-.19.36-.2.96-.03,1.8,1.67,8,3.34,16,5.02,24,.1.47.08.81-.06,1.02-.14.21-.35.33-.62.37Z"/>
              <path class="cls-2" d="M606.72,671.17c-.44.07-.89-.18-1.35-.75-5.65-7.02-11.15-14.1-16.5-21.22-.12-.17-.24-.23-.35-.19-.11.04-.14.17-.1.38,1.56,6.71,3.13,13.42,4.69,20.13.17.73.43,1.27.78,1.6.35.34.88.51,1.58.5.18,0,.37,0,.55,0,.36-.03.58.1.64.39.07.29-.1.46-.51.53-1.96.31-3.92.61-5.87.9-.41.06-.65-.05-.71-.34-.06-.29.08-.47.43-.55.17-.05.34-.11.52-.16.69-.21,1.12-.53,1.31-.95.19-.42.19-1,.03-1.73-1.71-7.42-3.42-14.83-5.13-22.25-.13-.55-.3-.9-.51-1.06-.21-.16-.63-.24-1.25-.26-.31,0-.62-.01-.93-.02-.36-.03-.56-.16-.61-.4-.06-.29.1-.46.49-.52,1.39-.21,2.78-.42,4.17-.64.65-.1,1.17.12,1.57.65,4.67,6.29,9.47,12.54,14.38,18.75.12.14.24.19.35.14.11-.05.15-.15.11-.3-1.51-5.89-3.02-11.78-4.54-17.67-.21-.83-.51-1.39-.88-1.66-.37-.28-.78-.42-1.25-.42-.24,0-.49,0-.73,0-.36-.02-.56-.15-.62-.38-.07-.29.09-.46.48-.53,1.85-.31,3.71-.63,5.56-.95.39-.07.62.04.7.33.08.29-.05.47-.38.56-.16.06-.32.11-.49.17-.65.22-1.06.52-1.23.89-.18.37-.16.97.06,1.8,2.06,7.94,4.12,15.88,6.17,23.83.12.47.12.81-.01,1.02-.13.21-.33.34-.61.39Z"/>
              <path class="cls-2" d="M619.75,668.84c-.6.11-1.17.02-1.69-.28-.53-.3-.88-.76-1.05-1.38-.17-.6-.09-1.12.23-1.57.31-.45.77-.73,1.37-.85.54-.1,1.08,0,1.62.29.54.29.9.74,1.07,1.33.18.62.1,1.16-.23,1.62-.33.46-.77.74-1.31.84Z"/>
            </g>
          </g>
        </g>
        <text id="TEXT-002-Motto" class="cls-3" transform="translate(244.94 299.83) rotate(-51.28)"><tspan x="0" y="0">B</tspan></text>
        <text class="cls-3" transform="translate(261.2 279.89) rotate(-45.62)"><tspan x="0" y="0">U</tspan></text>
        <text class="cls-3" transform="translate(281.04 260.31) rotate(-41.23)"><tspan x="0" y="0">I</tspan></text>
        <text class="cls-3" transform="translate(291.32 251.31) rotate(-37.21)"><tspan x="0" y="0">L</tspan></text>
        <text class="cls-3" transform="translate(310.49 236.91) rotate(-31.57)"><tspan x="0" y="0">D</tspan></text>
        <text class="cls-3" transform="translate(335.9 221.94) rotate(-27.2)"><tspan x="0" y="0"> </tspan></text>
        <text class="cls-3" transform="translate(346.64 216.57) rotate(-24.63)"><tspan x="0" y="0"> </tspan></text>
        <text class="cls-3" transform="translate(357.58 211.7) rotate(-22.07)"><tspan x="0" y="0"> </tspan></text>
        <text class="cls-3" transform="translate(368.39 207.24) rotate(-17.96)"><tspan x="0" y="0">R</tspan></text>
        <text class="cls-3" transform="translate(393.6 199.37) rotate(-12.41)"><tspan x="0" y="0">E</tspan></text>
        <text class="cls-3" transform="translate(417.38 194.33) rotate(-7.17)"><tspan x="0" y="0">S</tspan></text>
        <text class="cls-3" transform="translate(442.1 191.42) rotate(-1.77)"><tspan x="0" y="0">T</tspan></text>
        <text class="cls-3" transform="translate(466.65 190.61) rotate(4.39)"><tspan x="0" y="0">O</tspan></text>
        <text class="cls-3" transform="translate(497.12 193.15) rotate(9.82)"><tspan x="0" y="0">R</tspan></text>
        <text class="cls-3" transform="translate(523.05 197.92) rotate(15.34)"><tspan x="0" y="0">E</tspan></text>
        <text class="cls-3" transform="translate(547.62 205.12) rotate(19.34)"><tspan x="0" y="0"> </tspan></text>
        <text class="cls-3" transform="translate(558.91 209.22) rotate(21.92)"><tspan x="0" y="0"> </tspan></text>
        <text class="cls-3" transform="translate(569.97 213.81) rotate(24.5)"><tspan x="0" y="0"> </tspan></text>
        <text class="cls-3" transform="translate(580.66 218.63) rotate(28.5)"><tspan x="0" y="0">E</tspan></text>
        <text class="cls-3" transform="translate(602.78 230.85) rotate(34.22)"><tspan x="0" y="0">N</tspan></text>
        <text class="cls-3" transform="translate(625.98 246.93) rotate(40.32)"><tspan x="0" y="0">D</tspan></text>
        <text class="cls-3" transform="translate(648.05 266.08) rotate(46.34)"><tspan x="0" y="0">U</tspan></text>
        <text class="cls-3" transform="translate(666.76 286.09) rotate(52.01)"><tspan x="0" y="0">R</tspan></text>
        <text class="cls-3" transform="translate(682.79 307.06) rotate(57.48)"><tspan x="0" y="0">E</tspan></text>
        <polygon id="TEXT002-LeftStar" class="cls-7" points="343.98 191.94 345.38 201.71 355.11 200.03 346.25 204.38 350.86 213.11 343.98 206.03 337.1 213.11 341.7 204.38 332.85 200.03 342.57 201.71 343.98 191.94"/>
        <polygon id="TXT002-RightStar" class="cls-7" points="567.28 189.22 568.68 198.99 578.41 197.31 569.55 201.66 574.16 210.39 567.28 203.31 560.4 210.39 565 201.66 556.14 197.31 565.87 198.99 567.28 189.22"/>
      </g>
    </g>
  </g>
</svg>