<?xml version="1.0" encoding="UTF-8"?>
<svg id="Layer_2" data-name="Layer 2" xmlns="http://www.w3.org/2000/svg" viewBox="0 0 1182.97 269.88">
  <defs>
    <style>
      .cls-1, .cls-2 {
        fill: #203823;
      }

      .cls-2 {
        stroke: #203823;
        stroke-miterlimit: 10;
        stroke-width: 3px;
      }
    </style>
  </defs>
  <g id="RECTANGLES">
    <g id="green">
      <g>
        <path class="cls-1" d="M11.67,97.04c13.7,9.32,37.44,8.75,53.65,7.36l17.37-1.49c-20.57,18.61-29.61,41.02-35.3,66.99l-12,10.34-21.12,51.13-.08,21.53,37.18-.09-7.59-21.13,8.51-18.77c35.4-7.26,61.58-31.09,76.43-63.86,3.43,1.35,6.78,2.67,10.04,3.96-4.22,11.9-11.28,31.43-19.22,41.02l39.33,47.89,4.39,10.96h41.95c-1.85-4.3-3.6-8.09-6.14-11.95-2-1.96-5.91-3.5-8.47-5.3l-28.51-33.31c10.08-4.71,30.71-15.9,38.75-23.78l80.02-15.99c2.52,2.1,5.06,4.1,7.61,6.02l-20.01,64.99c5.85,6,9.66,12.66,12.28,20.41l34.31-.65c2.42-.05,4.24-.24,6.47-.66-7.88-15.11-4.9-9.92-17.64-20.26l13.21-45.85-.09-.05c10.78,5.6,22.13,10.36,34.36,14.75l-3.74,8.27-8.54-3.34c-4.69-1.83-20.93,11.78-24.18,17.16l39.28,13.92,9.48-4.64,20.66-39.11-22.94-24.53,17.6-10.54-1.18,5.29c-.12.56.49,1,.98.71,10.17-6.11,17.02-14.38,22.85-24.62l-.84,8.29c-.05.48.41.84.87.69,5.37-1.75,9.18-5.37,13.22-9.85-.35,5.78-3.84,9.98-7.96,14.16-.38.39-.14,1.05.4,1.12,6.83.78,13.57-2.1,17.93-7.63l4.62-5.87c-.11,8.47-5.33,13.73-10.39,19.96-.37.46,0,1.15.6,1.07,12.42-1.64,23.81-12.69,30.08-22.33,1.78-2.73,4.08-4.47,7.34-5.18,4.8-1.05,9.49-2.07,14.17-3.38,12.08-3.38,10.8-19.12,9.29-29.12-1.2-7.97-2.67-15.53-5.3-23.08-1.18-3.38-3.07-6.86-3.14-10.42l-.26-12.53c-.17-8.27-4.69-15.67-10.05-21.94-6.12-7.16-13.82-12.66-22.47-16.35-17.18-7.31-22.98,5.48-40.21,1.96-6.92-1.41-13.44-3.71-20.01-6.66-16.47-7.42-33.49-11.82-51.71-12.56-36.89-1.5-76.17,5.54-109.53,15.91-22,6.84-49.57,13.62-72.18,17.85-17.12,3.2-45.6,24.61-52.45,42.33-19.13,10.67-60.1,21.97-78.86,9.1-4.32-2.96-5.84-7.52-4.41-12.47,1.25-4.35,4.28-8.7,9.33-9.36,12.52-1.66,21.29-11.83,20.78-24.91-.27-6.84-1.65-13.73-4.48-20.38-.29-.67-1.25-.66-1.52.02-2.44,6.26-4.54,11.97-9.5,16.13-5.31,4.45-10.88,8.33-15.32,13.73-10.64,12.95-15.73,36.86,2,48.91ZM418.6,49.25c6.65-9.68,10.97-14.8,12.91-25.58.28-1.57,2.43-1.9,3.15-.47,4.24,8.37,2.02,17.64-1.93,25.92-2.51,5.25-3.06,11.86.52,16.84,1.22,1.7,1.97,4.12,1.23,5.99-.55,1.38-2.67,3.54-4.72,3.74-7.12.69-12.05-4.44-13.23-10.7-1.03-5.5-1.16-11.03,2.08-15.74Z"/>
        <g>
          <path class="cls-2" d="M580.72,111.63c-1.04,0-1.56-.38-1.56-1.14s.45-1.18,1.35-1.25l4.67-.73c1.38-.21,2.32-.57,2.8-1.09.48-.52.73-1.51.73-2.96v-62.32c0-.97-.21-1.66-.62-2.08-.42-.42-1.28-.62-2.6-.62-2.56,0-5.09,1.11-7.58,3.32-2.49,2.22-4.12,5.78-4.88,10.7l-.52,3.43c-.14.9-.62,1.35-1.45,1.35-1.04,0-1.49-.59-1.35-1.77l.94-18.8c.14-1.59.76-2.39,1.87-2.39.48,0,.94.12,1.35.36.42.24,1.12.5,2.13.78,1,.28,2.61.42,4.83.42h23.16c2.21,0,3.83-.14,4.83-.42,1-.28,1.73-.54,2.18-.78.45-.24.88-.36,1.3-.36,1.11,0,1.73.8,1.87,2.39l.93,18.8c.14,1.18-.31,1.77-1.35,1.77-.83,0-1.32-.45-1.45-1.35l-.52-3.43c-.69-4.92-2.29-8.48-4.78-10.7-2.49-2.22-5.06-3.32-7.69-3.32-1.32,0-2.18.21-2.6.62-.42.42-.62,1.11-.62,2.08v62.32c0,1.45.26,2.44.78,2.96.52.52,1.44.88,2.75,1.09l4.67.73c.9.07,1.35.49,1.35,1.25s-.52,1.14-1.56,1.14h-23.37Z"/>
          <path class="cls-2" d="M618.84,111.63c-1.04,0-1.56-.38-1.56-1.14,0-.62.45-1.04,1.35-1.25l2.39-.42c1.45-.28,2.41-.66,2.86-1.14.45-.48.68-1.45.68-2.91v-61.08c0-1.45-.23-2.42-.68-2.91-.45-.48-1.4-.87-2.86-1.14l-2.39-.42c-.9-.21-1.35-.62-1.35-1.25,0-.76.52-1.14,1.56-1.14h19.01c1.04,0,1.56.42,1.56,1.25,0,.62-.38,1-1.14,1.14l-2.8.42c-1.45.21-2.41.59-2.86,1.14-.45.55-.67,1.56-.67,3.01v26.07c0,.97.48,1.45,1.45,1.45h20.57c.97,0,1.45-.48,1.45-1.45v-26.07c0-1.45-.23-2.46-.68-3.01-.45-.55-1.4-.94-2.86-1.14l-2.8-.42c-.76-.14-1.14-.52-1.14-1.14,0-.83.52-1.25,1.56-1.25h19.01c1.04,0,1.56.38,1.56,1.14,0,.62-.45,1.04-1.35,1.25l-2.39.42c-1.45.28-2.41.66-2.86,1.14-.45.49-.67,1.45-.67,2.91v61.08c0,1.45.22,2.43.67,2.91.45.49,1.4.87,2.86,1.14l2.39.42c.9.21,1.35.62,1.35,1.25,0,.76-.52,1.14-1.56,1.14h-19.01c-1.04,0-1.56-.42-1.56-1.25,0-.62.38-1,1.14-1.14l2.8-.42c1.46-.21,2.41-.59,2.86-1.14.45-.55.68-1.56.68-3.01v-28.77c0-.97-.49-1.45-1.45-1.45h-20.57c-.97,0-1.45.49-1.45,1.45v28.77c0,1.45.22,2.46.67,3.01.45.56,1.4.94,2.86,1.14l2.8.42c.76.14,1.14.52,1.14,1.14,0,.83-.52,1.25-1.56,1.25h-19.01Z"/>
          <path class="cls-2" d="M674.52,111.63c-1.04,0-1.56-.38-1.56-1.14,0-.62.45-1.04,1.35-1.25l2.39-.42c1.45-.28,2.41-.66,2.86-1.14.45-.48.68-1.45.68-2.91v-61.08c0-1.45-.23-2.42-.68-2.91-.45-.48-1.4-.87-2.86-1.14l-2.39-.42c-.9-.21-1.35-.62-1.35-1.25,0-.76.52-1.14,1.56-1.14h34.9c1.59,0,2.46.8,2.6,2.39l.83,17.24c.14,1.18-.31,1.77-1.35,1.77-.83,0-1.32-.45-1.45-1.35l-.62-3.84c-.76-4.71-2.32-8.15-4.67-10.34-2.35-2.18-5.61-3.27-9.76-3.27-2.77,0-4.69.4-5.76,1.19-1.08.8-1.61,2.2-1.61,4.21v25.03c0,.97.48,1.45,1.45,1.45h5.19c3.05,0,4.92-1.63,5.61-4.88l1.04-5.19c.28-1.04.87-1.49,1.77-1.35.76.14,1.14.73,1.14,1.77v23.37c0,1.04-.38,1.63-1.14,1.77-.9.14-1.49-.31-1.77-1.35l-1.04-5.09c-.49-2.42-1.16-4.02-2.03-4.78-.87-.76-2.1-1.14-3.69-1.14h-5.09c-.97,0-1.45.49-1.45,1.45v26.07c0,2.49.64,4.29,1.92,5.4,1.28,1.11,3.62,1.66,7.01,1.66s6.42-.88,8.88-2.65c2.46-1.77,4.17-5.07,5.14-9.92l1.25-6.13c.21-.9.73-1.35,1.56-1.35.97,0,1.38.59,1.25,1.77l-1.04,18.49c-.14,1.59-1,2.39-2.6,2.39h-36.46Z"/>
          <path class="cls-2" d="M737.15,111.63c-1.04,0-1.56-.38-1.56-1.14,0-.62.45-1.04,1.35-1.25l2.39-.42c2.35-.42,3.53-1.77,3.53-4.05v-61.08c0-1.45-.23-2.42-.68-2.91-.45-.48-1.4-.87-2.86-1.14l-2.39-.42c-.9-.21-1.35-.62-1.35-1.25,0-.76.52-1.14,1.56-1.14h20.98c5.4,0,10.08,1.58,14.02,4.73,3.95,3.15,6.99,7.57,9.14,13.24,2.15,5.68,3.22,12.26,3.22,19.74s-1.13,14.09-3.38,19.63c-2.25,5.54-5.42,9.83-9.5,12.88-4.09,3.05-8.93,4.57-14.54,4.57h-19.94ZM757.51,108.93c6.16,0,10.85-2.94,14.07-8.83,3.22-5.88,4.83-14.4,4.83-25.55s-1.54-19.68-4.62-25.81c-3.08-6.13-7.63-9.19-13.66-9.19-5.26,0-7.89,2.53-7.89,7.58v54.22c0,2.77.57,4.73,1.71,5.87s2.99,1.71,5.56,1.71Z"/>
          <path class="cls-2" d="M790.13,111.63c-1.04,0-1.56-.38-1.56-1.14,0-.62.45-1.04,1.35-1.25l2.39-.42c1.45-.28,2.41-.66,2.86-1.14.45-.48.68-1.45.68-2.91v-61.08c0-1.45-.23-2.42-.68-2.91-.45-.48-1.4-.87-2.86-1.14l-2.39-.42c-.9-.21-1.35-.62-1.35-1.25,0-.76.52-1.14,1.56-1.14h34.9c1.59,0,2.46.8,2.6,2.39l.83,17.24c.14,1.18-.31,1.77-1.35,1.77-.83,0-1.32-.45-1.45-1.35l-.62-3.84c-.76-4.71-2.32-8.15-4.67-10.34-2.35-2.18-5.61-3.27-9.76-3.27-2.77,0-4.69.4-5.76,1.19-1.08.8-1.61,2.2-1.61,4.21v25.03c0,.97.48,1.45,1.45,1.45h5.19c3.05,0,4.92-1.63,5.61-4.88l1.04-5.19c.28-1.04.87-1.49,1.77-1.35.76.14,1.14.73,1.14,1.77v23.37c0,1.04-.38,1.63-1.14,1.77-.9.14-1.49-.31-1.77-1.35l-1.04-5.09c-.49-2.42-1.16-4.02-2.03-4.78-.87-.76-2.1-1.14-3.69-1.14h-5.09c-.97,0-1.45.49-1.45,1.45v26.07c0,2.49.64,4.29,1.92,5.4,1.28,1.11,3.62,1.66,7.01,1.66s6.42-.88,8.88-2.65c2.46-1.77,4.17-5.07,5.14-9.92l1.25-6.13c.21-.9.73-1.35,1.56-1.35.97,0,1.38.59,1.25,1.77l-1.04,18.49c-.14,1.59-1,2.39-2.6,2.39h-36.46Z"/>
          <path class="cls-2" d="M879.35,112.56c-6.02,0-9.87-3.95-11.53-11.84l-2.39-11.53c-.76-3.74-1.61-6.58-2.54-8.52-.93-1.94-2.22-3.25-3.84-3.95-1.63-.69-3.86-1.04-6.7-1.04-.97,0-1.73.26-2.29.78-.56.52-.83,1.16-.83,1.92v25.97c0,1.45.28,2.44.83,2.96.55.52,1.8.95,3.74,1.3l3.84.62c.76.14,1.14.52,1.14,1.14,0,.83-.52,1.25-1.56,1.25h-21.09c-1.04,0-1.56-.38-1.56-1.14,0-.62.45-1.04,1.35-1.25l2.39-.42c1.45-.28,2.41-.66,2.86-1.14.45-.48.68-1.45.68-2.91v-61.08c0-1.45-.23-2.42-.68-2.91-.45-.48-1.4-.87-2.86-1.14l-2.39-.42c-.9-.21-1.35-.62-1.35-1.25,0-.76.52-1.14,1.56-1.14h21.09c4.08,0,7.72.8,10.91,2.39,3.18,1.59,5.68,3.79,7.48,6.6,1.8,2.8,2.7,6.04,2.7,9.71,0,4.36-1.32,8.29-3.95,11.79-2.63,3.5-5.96,5.97-9.97,7.43-.48.14-.74.36-.78.68-.04.31.19.57.67.78,2.22,1.04,3.96,2.49,5.25,4.36,1.28,1.87,2.27,4.36,2.96,7.48l2.29,10.6c.76,3.6,1.66,6.16,2.7,7.69,1.04,1.52,2.35,2.29,3.95,2.29.55,0,1.05-.09,1.51-.26.45-.17,1.02-.5,1.71-.99.55-.35,1.07-.43,1.56-.26.48.17.73.54.73,1.09,0,1.18-.76,2.2-2.29,3.06-1.52.87-3.29,1.3-5.3,1.3ZM856.19,73.09c4.71,0,8.27-1.57,10.7-4.73,2.42-3.15,3.64-7.36,3.64-12.62s-1.4-9.12-4.21-12c-2.8-2.87-6.67-4.31-11.58-4.31-3.67,0-5.5,1.39-5.5,4.16v23.79c0,3.81,2.32,5.71,6.96,5.71Z"/>
          <path class="cls-2" d="M887.14,111.63c-1.04,0-1.56-.38-1.56-1.14,0-.62.45-1.04,1.35-1.25l2.39-.42c1.45-.28,2.41-.66,2.86-1.14.45-.48.68-1.45.68-2.91v-61.08c0-1.45-.23-2.42-.68-2.91-.45-.48-1.4-.87-2.86-1.14l-2.39-.42c-.9-.21-1.35-.62-1.35-1.25,0-.76.52-1.14,1.56-1.14h21.09c3.46,0,6.54.73,9.25,2.18,2.7,1.45,4.83,3.43,6.39,5.92,1.56,2.49,2.34,5.33,2.34,8.52s-.92,6.01-2.75,8.67c-1.84,2.67-4.48,4.9-7.95,6.7-.42.21-.62.49-.62.83s.24.59.73.73c4.71,1.59,8.34,4.14,10.91,7.63,2.56,3.5,3.84,7.63,3.84,12.41,0,4.09-.93,7.74-2.8,10.96-1.87,3.22-4.45,5.73-7.74,7.53-3.29,1.8-7.01,2.7-11.17,2.7h-21.5ZM905.74,68.94c3.67,0,6.73-1.44,9.19-4.31,2.46-2.87,3.69-6.46,3.69-10.75s-1.18-7.77-3.53-10.44c-2.35-2.67-5.47-4-9.35-4-3.67,0-5.5,1.39-5.5,4.16v19.63c0,2.01.43,3.46,1.3,4.36.87.9,2.27,1.35,4.21,1.35ZM907.3,109.03c4.5,0,8.17-1.71,11.01-5.14,2.84-3.43,4.26-8.01,4.26-13.76s-1.44-10.28-4.31-13.61c-2.88-3.32-6.74-4.99-11.58-4.99-4.29,0-6.44,1.7-6.44,5.09v25.24c0,4.78,2.35,7.17,7.06,7.17Z"/>
          <path class="cls-2" d="M942.51,111.63c-1.04,0-1.56-.38-1.56-1.14s.45-1.18,1.35-1.25l4.67-.73c1.38-.21,2.32-.57,2.8-1.09.48-.52.73-1.51.73-2.96v-24.51c0-1.52-.35-3.01-1.04-4.47l-15.27-31.99c-.49-1.18-1.04-2.08-1.66-2.7-.62-.62-1.52-1.07-2.7-1.35l-.93-.21c-.97-.21-1.46-.66-1.46-1.35s.52-1.04,1.56-1.04h17.76c.97,0,1.45.38,1.45,1.14s-.59,1.18-1.77,1.25l-1.97.21c-1.18.07-2.01.45-2.49,1.14-.49.69-.38,1.77.31,3.22l12.78,27.22c.28.48.62.73,1.04.73s.76-.24,1.04-.73l12.26-25.03c.9-1.8,1.12-3.27.67-4.41-.45-1.14-1.47-1.82-3.06-2.03l-2.29-.31c-1.18-.21-1.77-.62-1.77-1.25,0-.76.48-1.14,1.45-1.14h14.75c1.04,0,1.56.35,1.56,1.04s-.49,1.14-1.45,1.35l-1.04.21c-.97.21-1.82.8-2.54,1.77-.73.97-1.68,2.6-2.86,4.88l-13.61,27.32c-.49.97-.83,1.89-1.04,2.75-.21.87-.31,1.85-.31,2.96v25.35c0,1.45.26,2.44.78,2.96.52.52,1.44.88,2.75,1.09l4.67.73c.9.07,1.35.49,1.35,1.25s-.52,1.14-1.56,1.14h-23.37Z"/>
          <path class="cls-2" d="M999.12,112.67c-.28,0-.59-.1-.93-.31-.35-.21-.59-.66-.73-1.35l-16.41-65.86c-.49-1.94-1.02-3.29-1.61-4.05-.59-.76-1.58-1.28-2.96-1.56l-1.56-.31c-.97-.21-1.46-.66-1.46-1.35s.52-1.04,1.56-1.04h17.76c.97,0,1.45.38,1.45,1.14s-.59,1.18-1.77,1.25l-1.97.21c-1.18.07-1.92.43-2.23,1.09-.31.66-.3,1.75.05,3.27l12.05,49.96c.14.42.36.62.67.62s.5-.21.57-.62l11.95-47.78c.97-3.95-.07-6.13-3.12-6.54l-1.56-.21c-1.18-.21-1.77-.62-1.77-1.25,0-.76.48-1.14,1.46-1.14h14.54c1.04,0,1.56.35,1.56,1.04s-.49,1.14-1.46,1.35l-1.56.31c-1.32.28-2.34.95-3.06,2.03-.73,1.07-1.33,2.58-1.82,4.52l-16.1,64.92c-.14.69-.36,1.14-.68,1.35-.31.21-.61.31-.88.31Z"/>
          <path class="cls-2" d="M1023.63,111.63c-1.04,0-1.56-.38-1.56-1.14,0-.62.45-1.04,1.35-1.25l2.39-.42c1.45-.28,2.41-.66,2.86-1.14.45-.48.68-1.45.68-2.91v-61.08c0-1.45-.23-2.42-.68-2.91-.45-.48-1.4-.87-2.86-1.14l-2.39-.42c-.9-.21-1.35-.62-1.35-1.25,0-.76.52-1.14,1.56-1.14h18.8c1.04,0,1.56.38,1.56,1.14,0,.62-.45,1.04-1.35,1.25l-2.39.42c-1.45.28-2.41.66-2.86,1.14-.45.49-.67,1.45-.67,2.91v61.08c0,1.45.22,2.43.67,2.91.45.49,1.4.87,2.86,1.14l2.39.42c.9.21,1.35.62,1.35,1.25,0,.76-.52,1.14-1.56,1.14h-18.8Z"/>
          <path class="cls-2" d="M1048.46,111.63c-1.04,0-1.56-.38-1.56-1.14,0-.62.45-1.04,1.35-1.25l2.39-.42c1.45-.28,2.41-.66,2.86-1.14.45-.48.68-1.45.68-2.91v-61.08c0-1.45-.23-2.42-.68-2.91-.45-.48-1.4-.87-2.86-1.14l-2.39-.42c-.9-.21-1.35-.62-1.35-1.25,0-.76.52-1.14,1.56-1.14h19.01c1.04,0,1.56.42,1.56,1.25,0,.62-.38,1-1.14,1.14l-2.8.42c-1.45.21-2.41.59-2.86,1.14-.45.55-.67,1.56-.67,3.01v58.17c0,2.49.71,4.29,2.13,5.4,1.42,1.11,3.2,1.66,5.35,1.66,1.59,0,3.24-.33,4.93-.99,1.7-.66,3.24-1.9,4.62-3.74,1.38-1.83,2.42-4.52,3.12-8.05l1.35-6.96c.21-.9.73-1.35,1.56-1.35.97,0,1.38.59,1.25,1.77l-1.25,19.53c-.14,1.59-1,2.39-2.6,2.39h-33.55Z"/>
          <path class="cls-2" d="M1090.32,111.63c-1.04,0-1.56-.38-1.56-1.14,0-.62.45-1.04,1.35-1.25l2.39-.42c1.45-.28,2.41-.66,2.86-1.14.45-.48.68-1.45.68-2.91v-61.08c0-1.45-.23-2.42-.68-2.91-.45-.48-1.4-.87-2.86-1.14l-2.39-.42c-.9-.21-1.35-.62-1.35-1.25,0-.76.52-1.14,1.56-1.14h19.01c1.04,0,1.56.42,1.56,1.25,0,.62-.38,1-1.14,1.14l-2.8.42c-1.45.21-2.41.59-2.86,1.14-.45.55-.67,1.56-.67,3.01v58.17c0,2.49.71,4.29,2.13,5.4,1.42,1.11,3.2,1.66,5.35,1.66,1.59,0,3.24-.33,4.93-.99,1.7-.66,3.24-1.9,4.62-3.74,1.38-1.83,2.42-4.52,3.12-8.05l1.35-6.96c.21-.9.73-1.35,1.56-1.35.97,0,1.38.59,1.25,1.77l-1.25,19.53c-.14,1.59-1,2.39-2.6,2.39h-33.55Z"/>
          <path class="cls-2" d="M1132.18,111.63c-1.04,0-1.56-.38-1.56-1.14,0-.62.45-1.04,1.35-1.25l2.39-.42c1.45-.28,2.41-.66,2.86-1.14.45-.48.68-1.45.68-2.91v-61.08c0-1.45-.23-2.42-.68-2.91-.45-.48-1.4-.87-2.86-1.14l-2.39-.42c-.9-.21-1.35-.62-1.35-1.25,0-.76.52-1.14,1.56-1.14h34.9c1.59,0,2.46.8,2.6,2.39l.83,17.24c.14,1.18-.31,1.77-1.35,1.77-.83,0-1.32-.45-1.45-1.35l-.62-3.84c-.76-4.71-2.32-8.15-4.67-10.34-2.35-2.18-5.61-3.27-9.76-3.27-2.77,0-4.69.4-5.76,1.19-1.08.8-1.61,2.2-1.61,4.21v25.03c0,.97.48,1.45,1.45,1.45h5.19c3.05,0,4.92-1.63,5.61-4.88l1.04-5.19c.28-1.04.87-1.49,1.77-1.35.76.14,1.14.73,1.14,1.77v23.37c0,1.04-.38,1.63-1.14,1.77-.9.14-1.49-.31-1.77-1.35l-1.04-5.09c-.49-2.42-1.16-4.02-2.03-4.78-.87-.76-2.1-1.14-3.69-1.14h-5.09c-.97,0-1.45.49-1.45,1.45v26.07c0,2.49.64,4.29,1.92,5.4,1.28,1.11,3.62,1.66,7.01,1.66s6.42-.88,8.88-2.65c2.46-1.77,4.17-5.07,5.14-9.92l1.25-6.13c.21-.9.73-1.35,1.56-1.35.97,0,1.38.59,1.25,1.77l-1.04,18.49c-.14,1.59-1,2.39-2.6,2.39h-36.46Z"/>
          <path class="cls-2" d="M568.09,236.28c-1.04,0-1.56-.38-1.56-1.14,0-.62.45-1.04,1.35-1.25l2.39-.42c2.35-.42,3.53-1.77,3.53-4.05v-61.08c0-1.45-.23-2.42-.68-2.91-.45-.48-1.4-.87-2.86-1.14l-2.39-.42c-.9-.21-1.35-.62-1.35-1.25,0-.76.52-1.14,1.56-1.14h20.98c5.4,0,10.08,1.58,14.02,4.73,3.95,3.15,6.99,7.57,9.14,13.24,2.15,5.68,3.22,12.26,3.22,19.74s-1.13,14.09-3.38,19.63c-2.25,5.54-5.42,9.83-9.5,12.88-4.09,3.05-8.93,4.57-14.54,4.57h-19.94ZM588.46,233.58c6.16,0,10.85-2.94,14.07-8.83,3.22-5.88,4.83-14.4,4.83-25.55s-1.54-19.68-4.62-25.81c-3.08-6.13-7.63-9.19-13.66-9.19-5.26,0-7.89,2.53-7.89,7.58v54.22c0,2.77.57,4.73,1.71,5.87s2.99,1.71,5.56,1.71Z"/>
          <path class="cls-2" d="M621.07,236.28c-1.04,0-1.56-.38-1.56-1.14,0-.62.45-1.04,1.35-1.25l2.39-.42c1.45-.28,2.41-.66,2.86-1.14.45-.48.68-1.45.68-2.91v-61.08c0-1.45-.23-2.42-.68-2.91-.45-.48-1.4-.87-2.86-1.14l-2.39-.42c-.9-.21-1.35-.62-1.35-1.25,0-.76.52-1.14,1.56-1.14h34.9c1.59,0,2.46.8,2.6,2.39l.83,17.24c.14,1.18-.31,1.77-1.35,1.77-.83,0-1.32-.45-1.45-1.35l-.62-3.84c-.76-4.71-2.32-8.15-4.67-10.34-2.35-2.18-5.61-3.27-9.76-3.27-2.77,0-4.69.4-5.76,1.19-1.08.8-1.61,2.2-1.61,4.21v25.03c0,.97.48,1.45,1.45,1.45h5.19c3.05,0,4.92-1.63,5.61-4.88l1.04-5.19c.28-1.04.87-1.49,1.77-1.35.76.14,1.14.73,1.14,1.77v23.37c0,1.04-.38,1.63-1.14,1.77-.9.14-1.49-.31-1.77-1.35l-1.04-5.09c-.49-2.42-1.16-4.02-2.03-4.78-.87-.76-2.1-1.14-3.69-1.14h-5.09c-.97,0-1.45.49-1.45,1.45v26.07c0,2.49.64,4.29,1.92,5.4,1.28,1.11,3.62,1.66,7.01,1.66s6.42-.88,8.88-2.65c2.46-1.77,4.17-5.07,5.14-9.92l1.25-6.13c.21-.9.73-1.35,1.56-1.35.97,0,1.38.59,1.25,1.77l-1.04,18.49c-.14,1.59-1,2.39-2.6,2.39h-36.46Z"/>
          <path class="cls-2" d="M693.26,237.21c-5.12,0-9.61-1.59-13.45-4.78-3.84-3.18-6.82-7.67-8.93-13.45-2.11-5.78-3.17-12.62-3.17-20.52s1.16-14.28,3.48-20c2.32-5.71,5.44-10.14,9.35-13.3,3.91-3.15,8.26-4.73,13.04-4.73,2.84,0,5.33.26,7.48.78,2.15.52,4.05,1.19,5.71,2.03.83.49,1.25,1.21,1.25,2.18l.31,15.79c0,1.18-.42,1.77-1.25,1.77-.76,0-1.25-.45-1.45-1.35l-1.04-3.84c-1.45-5.4-3.13-9.14-5.04-11.22-1.91-2.08-4.17-3.12-6.8-3.12-4.85,0-8.88,3-12.1,8.98-3.22,5.99-4.83,14.66-4.83,26.02,0,7.76.81,14.3,2.44,19.63,1.63,5.33,3.74,9.35,6.34,12.05,2.6,2.7,5.35,4.05,8.26,4.05,3.12,0,5.62-.97,7.53-2.91,1.9-1.94,3.51-5.68,4.83-11.22l1.25-5.09c.21-1.04.76-1.49,1.66-1.35.76.14,1.14.73,1.14,1.77l-.42,16.83c0,.97-.45,1.7-1.35,2.18-1.66.83-3.62,1.51-5.87,2.03-2.25.52-5.04.78-8.36.78Z"/>
          <path class="cls-2" d="M715.91,236.28c-1.04,0-1.56-.38-1.56-1.14,0-.62.45-1.04,1.35-1.25l2.39-.42c1.45-.28,2.41-.66,2.86-1.14.45-.48.68-1.45.68-2.91v-61.08c0-1.45-.23-2.42-.68-2.91-.45-.48-1.4-.87-2.86-1.14l-2.39-.42c-.9-.21-1.35-.62-1.35-1.25,0-.76.52-1.14,1.56-1.14h19.01c1.04,0,1.56.42,1.56,1.25,0,.62-.38,1-1.14,1.14l-2.8.42c-1.45.21-2.41.59-2.86,1.14-.45.55-.67,1.56-.67,3.01v28.05c0,.69.21,1.11.62,1.25.42.14.79-.1,1.14-.73l17.04-26.7c2.29-3.53,2.08-5.54-.62-6.02l-2.39-.42c-.9-.21-1.35-.66-1.35-1.35s.48-1.04,1.45-1.04h17.66c.97,0,1.45.38,1.45,1.14s-.45,1.18-1.35,1.25l-1.97.21c-2.15.21-3.91.83-5.3,1.87-1.39,1.04-2.94,2.91-4.67,5.61l-11.74,18.39c-.69,1.18-.73,2.32-.1,3.43l19.53,36.77c.55,1.11,1.12,1.91,1.71,2.39.59.48,1.3.8,2.13.93l2.49.42c.83.07,1.25.49,1.25,1.25s-.49,1.14-1.45,1.14h-18.49c-.97,0-1.45-.38-1.45-1.14,0-.69.45-1.11,1.35-1.25l1.77-.21c2.7-.35,3.25-2.04,1.66-5.09l-14.96-28.46c-.28-.55-.59-.85-.93-.88-.35-.03-.69.23-1.04.78l-2.18,3.43c-.49.69-.81,1.35-.99,1.97-.17.62-.26,1.42-.26,2.39v21.5c0,1.45.22,2.46.67,3.01.45.56,1.4.94,2.86,1.14l2.8.42c.76.14,1.14.52,1.14,1.14,0,.83-.52,1.25-1.56,1.25h-19.01Z"/>
          <path class="cls-2" d="M780.1,237.21c-1.39,0-2.93-.14-4.62-.42-1.7-.28-3.29-.62-4.78-1.04-1.49-.42-2.65-.86-3.48-1.35-.49-.28-.85-.57-1.09-.88-.24-.31-.36-.85-.36-1.61l-.52-16.31c0-1.38.45-2.08,1.35-2.08.76,0,1.28.62,1.56,1.87l.94,3.95c2.35,9.9,6.75,14.85,13.19,14.85,3.46,0,6.21-1.16,8.26-3.48,2.04-2.32,3.06-5.59,3.06-9.82s-1.06-7.89-3.17-11.43c-2.11-3.53-5.49-7.03-10.13-10.49-5.12-3.67-8.86-7.22-11.22-10.65-2.36-3.43-3.53-7.08-3.53-10.96,0-5.12,1.78-9.23,5.35-12.31,3.57-3.08,8.12-4.62,13.66-4.62,2.08,0,4.09.24,6.03.73,1.94.48,3.53,1.18,4.78,2.08.42.28.74.59.99.94.24.35.36.8.36,1.35l.31,15.69c0,1.18-.45,1.77-1.35,1.77-.62,0-1.07-.48-1.35-1.45l-.73-2.6c-1.52-5.33-3.1-9.23-4.73-11.69-1.63-2.46-3.97-3.69-7.01-3.69s-5.35.97-7.12,2.91c-1.77,1.94-2.65,4.67-2.65,8.21,0,2.98.97,5.82,2.91,8.52,1.94,2.7,5.33,5.99,10.18,9.87,5.19,4.23,8.98,8.29,11.37,12.21,2.39,3.91,3.58,8.09,3.58,12.52,0,3.88-.87,7.27-2.6,10.18-1.73,2.91-4.1,5.18-7.12,6.8-3.01,1.63-6.46,2.44-10.33,2.44Z"/>
          <path class="cls-2" d="M848.55,237.21c-5.12,0-9.61-1.59-13.45-4.78-3.84-3.18-6.82-7.67-8.93-13.45-2.11-5.78-3.17-12.62-3.17-20.52s1.16-14.28,3.48-20c2.32-5.71,5.44-10.14,9.35-13.3,3.91-3.15,8.26-4.73,13.04-4.73,2.84,0,5.33.26,7.48.78,2.15.52,4.05,1.19,5.71,2.03.83.49,1.25,1.21,1.25,2.18l.31,15.79c0,1.18-.42,1.77-1.25,1.77-.76,0-1.25-.45-1.45-1.35l-1.04-3.84c-1.45-5.4-3.13-9.14-5.04-11.22-1.91-2.08-4.17-3.12-6.8-3.12-4.85,0-8.88,3-12.1,8.98-3.22,5.99-4.83,14.66-4.83,26.02,0,7.76.81,14.3,2.44,19.63,1.63,5.33,3.74,9.35,6.34,12.05,2.6,2.7,5.35,4.05,8.26,4.05,3.12,0,5.62-.97,7.53-2.91,1.9-1.94,3.51-5.68,4.83-11.22l1.25-5.09c.21-1.04.76-1.49,1.66-1.35.76.14,1.14.73,1.14,1.77l-.42,16.83c0,.97-.45,1.7-1.35,2.18-1.66.83-3.62,1.51-5.87,2.03-2.25.52-5.04.78-8.36.78Z"/>
          <path class="cls-2" d="M894.47,237.21c-3.32,0-6.44-.99-9.35-2.96s-5.45-4.69-7.63-8.15c-2.18-3.46-3.88-7.53-5.09-12.21-1.21-4.67-1.82-9.71-1.82-15.11s.61-10.42,1.82-15.06c1.21-4.64,2.91-8.71,5.09-12.21,2.18-3.5,4.73-6.21,7.63-8.15,2.91-1.94,6.02-2.91,9.35-2.91s6.42.97,9.3,2.91c2.87,1.94,5.42,4.66,7.63,8.15,2.22,3.5,3.93,7.57,5.14,12.21,1.21,4.64,1.82,9.66,1.82,15.06s-.61,10.44-1.82,15.11c-1.21,4.67-2.93,8.74-5.14,12.21-2.22,3.46-4.76,6.18-7.63,8.15-2.87,1.97-5.97,2.96-9.3,2.96ZM894.47,234.41c4.92,0,8.76-2.94,11.53-8.83,2.77-5.88,4.16-14.82,4.16-26.8s-1.39-20.9-4.16-26.75c-2.77-5.85-6.61-8.78-11.53-8.78s-8.67,2.93-11.48,8.78c-2.8,5.85-4.21,14.77-4.21,26.75s1.4,20.91,4.21,26.8c2.8,5.89,6.63,8.83,11.48,8.83Z"/>
          <path class="cls-2" d="M954.19,235.24c-.28,0-.59-.1-.94-.31-.35-.21-.59-.66-.73-1.35l-15.69-63.68c-.07-.48-.28-.71-.62-.67-.35.04-.52.29-.52.78l-2.08,57.34c-.07,1.94.24,3.41.93,4.41.69,1,1.9,1.65,3.64,1.92l1.35.21c.9.07,1.35.49,1.35,1.25s-.52,1.14-1.56,1.14h-14.85c-1.04,0-1.56-.38-1.56-1.14s.45-1.18,1.35-1.25l1.35-.21c1.8-.28,3.03-.92,3.69-1.92.66-1,1.02-2.48,1.09-4.41l2.08-59c.07-1.45-.14-2.42-.62-2.91-.49-.48-1.52-.87-3.12-1.14l-2.39-.42c-.9-.21-1.35-.62-1.35-1.25,0-.76.52-1.14,1.56-1.14h12.46c2.15,0,3.46,1.04,3.95,3.12l12.57,51.83c.14.48.36.73.67.73s.5-.24.57-.73l13.09-52.35c.42-1.73,1.52-2.6,3.32-2.6h12.26c1.04,0,1.56.38,1.56,1.14,0,.62-.45,1.04-1.35,1.25l-2.39.42c-1.45.28-2.42.66-2.91,1.14-.49.49-.69,1.45-.62,2.91l2.08,61.08c.07,1.45.31,2.43.73,2.91.42.49,1.35.87,2.8,1.14l2.39.42c.9.21,1.35.62,1.35,1.25,0,.76-.52,1.14-1.56,1.14h-18.8c-1.04,0-1.56-.38-1.56-1.14,0-.62.45-1.04,1.35-1.25l2.39-.42c1.45-.28,2.42-.66,2.91-1.14.48-.48.69-1.45.62-2.91l-1.77-59.42c0-.48-.16-.74-.47-.78-.31-.03-.54.16-.68.57l-15.79,63.78c-.14.69-.36,1.14-.67,1.35-.31.21-.61.31-.88.31Z"/>
          <path class="cls-2" d="M992.21,236.28c-1.04,0-1.56-.38-1.56-1.14,0-.62.45-1.04,1.35-1.25l2.39-.42c1.45-.28,2.41-.66,2.86-1.14.45-.48.68-1.45.68-2.91v-61.08c0-1.45-.23-2.42-.68-2.91-.45-.48-1.4-.87-2.86-1.14l-2.39-.42c-.9-.21-1.35-.62-1.35-1.25,0-.76.52-1.14,1.56-1.14h21.71c4.09,0,7.69.88,10.8,2.65,3.12,1.77,5.54,4.21,7.27,7.32,1.73,3.12,2.6,6.72,2.6,10.8s-.87,7.44-2.6,10.49c-1.73,3.05-4.12,5.42-7.17,7.12-3.05,1.7-6.58,2.54-10.6,2.54h-7.48c-.97,0-1.45.49-1.45,1.45v25.14c0,1.45.28,2.44.83,2.96.55.52,1.8.95,3.74,1.3l3.84.62c.76.14,1.14.52,1.14,1.14,0,.83-.52,1.25-1.56,1.25h-21.09ZM1005.3,194.11c0,3.81,2.32,5.71,6.96,5.71s8.05-1.59,10.65-4.78c2.6-3.18,3.9-7.55,3.9-13.09s-1.32-10.08-3.95-13.19c-2.63-3.12-6.37-4.67-11.22-4.67-4.22,0-6.34,1.39-6.34,4.16v25.86Z"/>
          <path class="cls-2" d="M1031.58,236.28c-1.04,0-1.56-.35-1.56-1.04s.49-1.14,1.46-1.35l1.56-.31c1.38-.28,2.42-.95,3.12-2.03.69-1.07,1.28-2.58,1.77-4.52l16.1-64.92c.14-.69.36-1.14.68-1.35.31-.21.61-.31.88-.31.35,0,.67.1.99.31.31.21.54.66.68,1.35l16.41,65.86c.48,1.94,1.04,3.29,1.66,4.05.62.76,1.59,1.28,2.91,1.56l1.56.31c.97.21,1.46.66,1.46,1.35s-.52,1.04-1.56,1.04h-17.76c-.97,0-1.45-.38-1.45-1.14s.59-1.18,1.77-1.25l1.97-.21c1.18-.14,1.92-.52,2.23-1.14.31-.62.29-1.7-.05-3.22l-3.95-16.1c-.42-1.8-1.56-2.7-3.43-2.7h-10.91c-1.8,0-2.94.9-3.43,2.7l-3.53,13.92c-1.04,3.95,0,6.13,3.12,6.54l1.56.21c1.18.21,1.77.62,1.77,1.25,0,.76-.48,1.14-1.45,1.14h-14.54ZM1047.78,207.4h11.43c1.11,0,1.56-.59,1.35-1.77l-6.65-27.84h-.52l-6.96,27.84c-.21,1.18.24,1.77,1.35,1.77Z"/>
          <path class="cls-2" d="M1121.85,237.21c-1.11,0-2.04-.83-2.8-2.49l-28.15-61.08c-.21-.48-.47-.69-.78-.62-.31.07-.47.38-.47.94v53.39c0,1.94.33,3.41.99,4.41.66,1,1.85,1.65,3.58,1.92l1.35.21c.9.07,1.35.49,1.35,1.25s-.52,1.14-1.56,1.14h-14.85c-1.04,0-1.56-.38-1.56-1.14s.45-1.18,1.35-1.25l1.35-.21c1.8-.28,3.05-.92,3.74-1.92.69-1,1.04-2.48,1.04-4.41v-59c0-1.45-.23-2.42-.67-2.91-.45-.48-1.47-.87-3.06-1.14l-2.39-.42c-.9-.21-1.35-.62-1.35-1.25,0-.76.52-1.14,1.56-1.14h11.12c1.73,0,2.94.76,3.64,2.29l24.51,53.91c.21.42.47.59.78.52.31-.07.47-.31.47-.73v-47.06c0-2.22-.38-3.76-1.14-4.62-.76-.86-1.73-1.4-2.91-1.61l-1.87-.31c-.9-.21-1.35-.62-1.35-1.25,0-.76.52-1.14,1.56-1.14h14.85c1.04,0,1.56.38,1.56,1.14s-.45,1.18-1.35,1.25l-1.35.21c-1.8.28-3.05.85-3.74,1.71-.69.87-1.04,2.41-1.04,4.62v63.47c0,1.25-.23,2.11-.67,2.6-.45.48-1.02.73-1.71.73Z"/>
          <path class="cls-2" d="M1143.25,236.28c-1.04,0-1.56-.38-1.56-1.14s.45-1.18,1.35-1.25l4.67-.73c1.38-.21,2.32-.57,2.8-1.09.48-.52.73-1.51.73-2.96v-24.51c0-1.52-.35-3.01-1.04-4.47l-15.27-31.99c-.49-1.18-1.04-2.08-1.66-2.7-.62-.62-1.52-1.07-2.7-1.35l-.93-.21c-.97-.21-1.46-.66-1.46-1.35s.52-1.04,1.56-1.04h17.76c.97,0,1.45.38,1.45,1.14s-.59,1.18-1.77,1.25l-1.97.21c-1.18.07-2.01.45-2.49,1.14-.49.69-.38,1.77.31,3.22l12.78,27.22c.28.48.62.73,1.04.73s.76-.24,1.04-.73l12.26-25.03c.9-1.8,1.12-3.27.67-4.41-.45-1.14-1.47-1.82-3.06-2.03l-2.29-.31c-1.18-.21-1.77-.62-1.77-1.25,0-.76.48-1.14,1.45-1.14h14.75c1.04,0,1.56.35,1.56,1.04s-.49,1.14-1.45,1.35l-1.04.21c-.97.21-1.82.8-2.54,1.77-.73.97-1.68,2.6-2.86,4.88l-13.61,27.32c-.49.97-.83,1.89-1.04,2.75-.21.87-.31,1.85-.31,2.96v25.35c0,1.45.26,2.44.78,2.96.52.52,1.44.88,2.75,1.09l4.67.73c.9.07,1.35.49,1.35,1.25s-.52,1.14-1.56,1.14h-23.37Z"/>
        </g>
      </g>
    </g>
  </g>
</svg>